<svg xmlns="http://www.w3.org/2000/svg" viewBox="0 0 64 64" x="0px" y="0px"><path d="M57.0002,60.01761h-5.799a5.64734,5.64734,0,0,0-6.331-7.29,6.59091,6.59091,0,0,0-9.61609-4.91589,10.31141,10.31141,0,0,0,2.5166-2.81641c9.2633-2.3609,10.08972-13.81287.285-18.87524a1.00384,1.00384,0,0,0-.913.01574,10.77732,10.77732,0,0,0-2.64032,17.2865c1.53186-1.98755,2.12018-6.31793,2.12018-6.31793,1.33569,5.50708-.99555,7.61188-2.17987,8.7666a8.428,8.428,0,0,0-5.22333-4.00586c-5.48438-11.02142-19.8609-5.12195-17.58051,6.36841a.99917.99917,0,0,0,.44037.62787c5.06037,3.24383,12.936,2.40894,16.56384-3.73969-3.74987-1.32458-10.02771.10871-10.02771.10871,4.50885-3.31915,10.66968-1.2666,10.66968-1.2666a6.54345,6.54345,0,0,1,4.06757,4.48932,6.57809,6.57809,0,0,0-8.8125,4.31451,5.64361,5.64361,0,0,0-6.51093,7.25H7.0002a1.00012,1.00012,0,0,0,.00006,2H57.0002A1.00012,1.00012,0,0,0,57.0002,60.01761Zm-20-5a2.00472,2.00472,0,0,0-2,2,1.003,1.003,0,0,1-1,1c-1.10358-.01129-1.124-1.29761-.85-2.08a2.932,2.932,0,0,0-2.15-.92,1.003,1.003,0,0,1-1-1c.2442-1.97058,3.2995-.62665,4.19.16.78321-.85382,3.569-2.07531,3.81006-.16A1.00306,1.00306,0,0,1,37.0002,55.01761Z"></path><path d="M28.14375,12.61331c6.23029,4.9187,13.6344-3.918,7.71277-9.19153C29.62813-1.49472,22.22164,7.33725,28.14375,12.61331Z"></path><path d="M50.3918,18.98831l1.8125.84571a1.00018,1.00018,0,0,0,.84564-1.81257l-1.81244-.84564A1.00015,1.00015,0,0,0,50.3918,18.98831Z"></path><path d="M44.95333,16.45316l1.8125.84472a1.00017,1.00017,0,0,0,.84564-1.81256L45.799,14.64066A1.00016,1.00016,0,0,0,44.95333,16.45316Z"></path><path d="M39.51583,13.917l1.8125.84571a1.00017,1.00017,0,0,0,.84564-1.81256l-1.81244-.84565A1.00016,1.00016,0,0,0,39.51583,13.917Z"></path><path d="M22.13106,30.77933a1.0021,1.0021,0,0,0,1.3291-.4834l.8457-1.8125a1,1,0,1,0-1.8125-.8457l-.8457,1.8125A1.00041,1.00041,0,0,0,22.13106,30.77933Z"></path><path d="M25.02852,22.19925l-.84473,1.8125a1.00015,1.00015,0,0,0,1.81252.84567L26.841,23.045A1.00016,1.00016,0,0,0,25.02852,22.19925Z"></path><path d="M27.62422,19.9971a1.00092,1.00092,0,0,0,.90723-.57715l.8457-1.8125a1,1,0,0,0-1.8125-.8457l-.8457,1.8125A1.00554,1.00554,0,0,0,27.62422,19.9971Z"></path><path d="M18.49727,19.90238c.46314.07659,1.82764-1.12092,2.21094-1.32813a1.00074,1.00074,0,0,0-1.1485-1.63867L17.92208,18.083A1.00654,1.00654,0,0,0,18.49727,19.90238Z"></path><path d="M13.58223,23.34378c.46314.0766,1.82764-1.12091,2.21094-1.32812a1.00074,1.00074,0,0,0-1.1485-1.63868L13.007,21.52445A1.00654,1.00654,0,0,0,13.58223,23.34378Z"></path><path d="M23.41133,16.461c.44684.08331,1.82862-1.11951,2.21094-1.32813a1.00016,1.00016,0,0,0-1.14655-1.63867l-1.63861,1.14746A1.00614,1.00614,0,0,0,23.41133,16.461Z"></path><path d="M34.04024,19.86527l-.17383-1.99219a1,1,0,0,0-1.99219.17383l.17383,1.99218A1,1,0,0,0,34.04024,19.86527Z"></path><path d="M33.56661,26.92972a1.00086,1.00086,0,0,0,.99707-1.08789l-.17481-1.99219a1,1,0,0,0-1.99219.17578l.17481,1.99219A1.00064,1.00064,0,0,0,33.56661,26.92972Z"></path><path d="M39.68971,21.922l1.1474,1.63763a1.0007,1.0007,0,0,0,1.63861-1.1485l-1.14739-1.63763A1.00071,1.00071,0,0,0,39.68971,21.922Z"></path><path d="M44.27852,28.47464a1.0007,1.0007,0,0,0,1.63861-1.1485l-1.1474-1.63763A1.00052,1.00052,0,1,0,43.13106,26.837Z"></path><path d="M37.88692,15.85941A1.00014,1.00014,0,0,0,36.24831,17.006l1.1474,1.63861A1.00013,1.00013,0,0,0,39.03432,17.498Z"></path></svg>