<svg xmlns="http://www.w3.org/2000/svg" viewBox="0 0 64 64" x="0px" y="0px"><path d="M57.194,23.41113V18.5a4.00428,4.00428,0,0,0-4-4h-7v-3a4.00428,4.00428,0,0,0-4-4h-2a4.00427,4.00427,0,0,0-4,4v3h-16v-3a4.00428,4.00428,0,0,0-4-4h-2a4.00427,4.00427,0,0,0-4,4v3h-4a4.00427,4.00427,0,0,0-4,4v34a4.00427,4.00427,0,0,0,4,4h44a4.00428,4.00428,0,0,0,4-4h4.60986a2.99886,2.99886,0,0,0,2.95459-3.52539ZM7.194,45.5v-4a2.00229,2.00229,0,0,1,2-2h4a2.0023,2.0023,0,0,1,2,2v4a2.0023,2.0023,0,0,1-2,2h-4A2.00229,2.00229,0,0,1,7.194,45.5Zm0-12v-4a2.00229,2.00229,0,0,1,2-2h4a2.0023,2.0023,0,0,1,2,2v4a2.0023,2.0023,0,0,1-2,2h-4A2.00229,2.00229,0,0,1,7.194,33.5Zm20,19h-18a1.00011,1.00011,0,0,1,.00006-2H27.194A1.00011,1.00011,0,0,1,27.194,52.5Zm8,0h-4a1.0001,1.0001,0,0,1,.00006-2H35.194A1.0001,1.0001,0,0,1,35.194,52.5ZM33.3361,42.35742c-.09815,0-.19581-.00293-.29346-.00976.11871,6.81591-9.81769,6.81213-9.69727,0-6.833.10382-6.79742-9.80677,0-9.69532-.11865-6.81591,9.81769-6.81219,9.69727,0C39.6453,32.50226,39.961,42.1004,33.3361,42.35742ZM39.194,52.5a1.00011,1.00011,0,0,1,.00006-2A1.00011,1.00011,0,0,1,39.194,52.5Zm10-7a2.0023,2.0023,0,0,1-2,2h-4a2.00229,2.00229,0,0,1-2-2v-4a2.00229,2.00229,0,0,1,2-2h4a2.0023,2.0023,0,0,1,2,2Zm0-12a2.0023,2.0023,0,0,1-2,2h-4a2.00229,2.00229,0,0,1-2-2v-4a2.00229,2.00229,0,0,1,2-2h4a2.0023,2.0023,0,0,1,2,2Zm3-10h-48v-5a2.00229,2.00229,0,0,1,2-2h4v1a4.00427,4.00427,0,0,0,4,4h2a4.00428,4.00428,0,0,0,4-4v-1h16v1a4.00427,4.00427,0,0,0,4,4h2a4.00428,4.00428,0,0,0,4-4v-1h4a2.0023,2.0023,0,0,1,2,2Zm1.47869-6.93561A1.9991,1.9991,0,0,1,55.194,18.5v4h-1v-4A3.95,3.95,0,0,0,53.6727,16.56439Zm5.9007,33.57623a.988.988,0,0,1-.76953.35938H54.194v-26h1.16278l4.43292,24.82812A.989.989,0,0,1,59.5734,50.14062Z"></path><path d="M28.194,34.5a3.00019,3.00019,0,0,0,.00012,6A3.00019,3.00019,0,0,0,28.194,34.5Z"></path></svg>