<svg xmlns="http://www.w3.org/2000/svg" viewBox="0 0 64 64" x="0px" y="0px"><path d="M29.8509,37.566a.99988.99988,0,0,0,1.32764.07715,8.001,8.001,0,0,1,9.36084-.40722,1,1,0,0,0,1.01953.0498A22.00881,22.00881,0,0,0,51.6092,26.396a3.50984,3.50984,0,0,0,3.77136-5.72662L41.23859,6.52788A3.50907,3.50907,0,0,0,35.513,10.29839,22.09688,22.09688,0,0,0,23.79719,22.01323a3.53694,3.53694,0,0,0-4.79682,3.253,3.47677,3.47677,0,0,0,1.02533,2.47455ZM21.44025,24.20561a1.50546,1.50546,0,0,1,2.12012,0A1.00639,1.00639,0,0,0,25.201,23.8579,20.38152,20.38152,0,0,1,37.35481,11.70366a1.00741,1.00741,0,0,0,.34863-1.64063A1.50167,1.50167,0,0,1,37.703,7.94194a1.53687,1.53687,0,0,1,2.12158,0l14.14209,14.1416a1.50052,1.50052,0,0,1-2.12164,2.122,1.00629,1.00629,0,0,0-1.64008.34772,20.22676,20.22676,0,0,1-9.083,10.69238,10.00829,10.00829,0,0,0-10.459.30371l-9.22314-9.22265A1.50585,1.50585,0,0,1,21.44025,24.20561Z"></path><path d="M34.29231,27.62065a3.9134,3.9134,0,0,0,7.82568,0,3.91364,3.91364,0,0,0,0-7.82617,3.9134,3.9134,0,0,0-7.82568,0A3.91365,3.91365,0,0,0,34.29231,27.62065Zm3.978-6.84814a2.73016,2.73016,0,0,1-.00006,5.46A2.73016,2.73016,0,0,1,38.27033,20.77251Z"></path><path d="M61.00031,56.50249H57.85694a3.98046,3.98046,0,0,0-2.89123-4.86872A13.50018,13.50018,0,0,1,55.0052,49.606s-3.00489-4.10351.99511-9.10351a8.20883,8.20883,0,0,0-.15,8.71924,6.81419,6.81419,0,0,0,1.666-12.58161,1.00484,1.00484,0,0,0-.80554-.09173c-5.94958,1.8717-7.33,8.62744-3.62707,12.4262a12.59852,12.59852,0,0,0-.1167,2.68018,4.01626,4.01626,0,0,0-.70886.252,4.99334,4.99334,0,0,0-8.83545,4.59571H28.88679a5.01428,5.01428,0,0,0-7.59693-5.20215,5.98756,5.98756,0,0,0-2.31341-1.458,11.92619,11.92619,0,0,1,.05975-2.43017c-.63208-1.3841-1.59375-4.64,1.41962-8.40674a8.15276,8.15276,0,0,0-.43958,8.17749A6.8171,6.8171,0,0,0,21.5163,34.64012a1.00075,1.00075,0,0,0-.80554-.09173c-5.94952,1.8717-7.33,8.62744-3.62707,12.4262a12.3585,12.3585,0,0,0-.12445,2.53058,5.91868,5.91868,0,0,0-5.08881,2.91236,4.91731,4.91731,0,0,0-2.87012-.915,3.96754,3.96754,0,0,1,.0326-1.06989c-.60047-1.058-2.14038-4.59814,1.19946-8.773A8.19593,8.19593,0,0,0,9.98188,50.191,6.8162,6.8162,0,0,0,11.5163,37.64012a1.00031,1.00031,0,0,0-.80554-.09173c-5.94958,1.8717-7.33,8.62744-3.62707,12.4262a11.63116,11.63116,0,0,0-.14856,1.98719,4.99819,4.99819,0,0,0-2.93482,4.54071h-1a1.00012,1.00012,0,0,0,.00006,2H61.00031A1.00013,1.00013,0,0,0,61.00031,56.50249Z"></path><path d="M35.41,44.50249a1.00009,1.00009,0,0,0,.00006,2A1.00009,1.00009,0,0,0,35.41,44.50249Z"></path><path d="M35.41,52.50249a1.00009,1.00009,0,0,0,.00006,2A1.00009,1.00009,0,0,0,35.41,52.50249Z"></path><path d="M35.41,40.50249a1.00009,1.00009,0,0,0,.00006,2A1.00009,1.00009,0,0,0,35.41,40.50249Z"></path><path d="M35.41,36.50249a1.00009,1.00009,0,0,0,.00006,2A1.00009,1.00009,0,0,0,35.41,36.50249Z"></path><path d="M35.41,48.50249a1.00009,1.00009,0,0,0,.00006,2A1.00009,1.00009,0,0,0,35.41,48.50249Z"></path><path d="M32.54035,43.6226a.9975.9975,0,0,0-1.95019-.41992A.9975.9975,0,0,0,32.54035,43.6226Z"></path><path d="M31.71027,47.53276a1.00246,1.00246,0,0,0-1.96-.4209A1.00246,1.00246,0,0,0,31.71027,47.53276Z"></path><path d="M33.3802,39.71245a.9975.9975,0,0,0-1.9502-.41992A.9975.9975,0,0,0,33.3802,39.71245Z"></path><path d="M29.68006,52.21245a1.00234,1.00234,0,0,0,.41986-1.96A1.00234,1.00234,0,0,0,29.68006,52.21245Z"></path><path d="M39.3802,39.29253a.99752.99752,0,0,0-1.9502.41992A.99752.99752,0,0,0,39.3802,39.29253Z"></path><path d="M39.24006,44.41264a1,1,0,1,0-.21-1.98047A1,1,0,0,0,39.24006,44.41264Z"></path><path d="M40.0799,48.32182a.99927.99927,0,1,0-.21-1.97949A.99927.99927,0,0,0,40.0799,48.32182Z"></path><path d="M40.92024,52.232a.99924.99924,0,1,0-.21-1.97949A.99924.99924,0,0,0,40.92024,52.232Z"></path></svg>