<svg xmlns="http://www.w3.org/2000/svg" viewBox="0 0 64 64" x="0px" y="0px"><path d="M56.05444,60.01174h-10.1a5.02253,5.02253,0,0,0-6.26-3.81,5.00512,5.00512,0,0,0-8.77-1c2.50745.78717,3.13,3.82757,3.01,4.72a5.04169,5.04169,0,0,0-4.98-3.91,5.01147,5.01147,0,0,0-6.37-3.77,7.93069,7.93069,0,0,0-3.75684-2.02289,7.34594,7.34594,0,0,1,1.10181-1.68567,9.74037,9.74037,0,0,1,7.27392-3.0116S22.533,46.89949,20.72546,49.32c3.61243,3.36359,10.28857,1.51941,11.32507-3.39917-.98279-8.23419-12.88159-7.63226-13.01343.6662a9.3227,9.3227,0,0,0-1.98254,2.69495,9.32642,9.32642,0,0,0-1.98279-2.69574C14.93749,38.2856,3.04,37.69,2.05834,45.921c.97876,4.75238,7.39917,6.69983,11.03931,3.64239-1.39526-2.61377-6.107-4.14746-6.107-4.14746,5.96276.62219,7.40087,3.18634,8.29492,4.81128a8.03413,8.03413,0,0,0-5.151,3.78449,5.00456,5.00456,0,0,0-4.9701,6h-2.11a1.00013,1.00013,0,0,0,0,2h53A1.00014,1.00014,0,0,0,56.05444,60.01174Z"></path><path d="M60.17443,17.87172l-1.00573-.67047C60.96533,9.71852,52.454,1.0735,44.8894,2.06655c-7.74072.65106-15.07654,9.48443-9.676,16.45318a4.01567,4.01567,0,0,0-.309,4.822l.68006,1.02,1.27,1.9,3.74,5.62c.49646.71051,1.75586,2.65076,2.23,3.33991a4.02039,4.02039,0,0,0,6.15991.6l11.8-11.79A4.03119,4.03119,0,0,0,60.17443,17.87172Zm-20.14,4.28a1.00071,1.00071,0,0,1-1.40991-1.4201l8.88989-8.89,1.7,1.13Zm17.32129-6.15924L48.29443,9.95174a4.02415,4.02415,0,0,0-5.05.5l-6.61292,6.61291C32.55151,11.44612,39.04223,4.54317,45.079,4.05672,51.10351,3.24245,58.10522,10.05818,57.35571,15.99251Z"></path><path d="M22.05444,34.01174a3.00938,3.00938,0,0,0,2.96-2.53l14.41,2.24-.49-.73-5.62-8.43-9.78.84a3.02076,3.02076,0,0,0-4.48,2.61005v2.99994A3.00883,3.00883,0,0,0,22.05444,34.01174Zm-1-6a1.0001,1.0001,0,0,1,2,0v3a1.00011,1.00011,0,0,1-2-.00006Z"></path><path d="M14.13647,28.96584a8.62681,8.62681,0,0,1,1.91894.0459.99877.99877,0,0,0,.9834-.82618c.04224-1.41735-1.13232-1.26757-3.05859-1.21392A1.00026,1.00026,0,0,0,14.13647,28.96584Z"></path><path d="M4.21264,35.085c.98584-.06427,1.30737-1.364,1.97473-1.92468a1.00039,1.00039,0,0,0-.0968-1.41126c-1.24145-.91034-2.02759.97315-2.70215,1.77142A1.00616,1.00616,0,0,0,4.21264,35.085Z"></path><path d="M8.43432,30.88283c.77942-.11389,1.40515-.789,2.15918-1.02722a1.00019,1.00019,0,0,0,.51758-1.31653c-.73706-1.36853-2.30347.0318-3.21973.50281A1.00631,1.00631,0,0,0,8.43432,30.88283Z"></path><path d="M11.0144,38.01271c1.34863.4925,1.533-1.45392,2.13183-2.1709a.99987.99987,0,0,0-.31445-1.3789c-1.3949-.69922-1.85913,1.28-2.3623,2.245A.99982.99982,0,0,0,11.0144,38.01271Z"></path><path d="M14.68823,31.68257a.99986.99986,0,0,0,.916,1.77735c1.448-.80377,2.19458-.00128,2.4502-1.44818C17.88159,30.59206,16.48547,30.85842,14.68823,31.68257Z"></path></svg>