<svg xmlns="http://www.w3.org/2000/svg" viewBox="0 0 64 64" x="0px" y="0px"><path d="M28.48232,6a.99942.99942,0,0,0,1-1V3a1,1,0,0,0-2,0V5A.99943.99943,0,0,0,28.48232,6Z"></path><path d="M23.61611,7.23242a1.00033,1.00033,0,0,0,1.73236-1.00006L24.34853,4.5a1.00026,1.00026,0,0,0-1.73242,1Z"></path><path d="M31.98232,7.59863a1.00193,1.00193,0,0,0,1.36621-.36621l1-1.73242a1.00016,1.00016,0,1,0-1.73242-1l-1,1.73242A.99988.99988,0,0,0,31.98232,7.59863Z"></path><path d="M55.956,8.11914C42.61214.7962,27.03,7.13055,28.61275,21.47668a22.17689,22.17689,0,0,0-2.10064,4.2707,10.86291,10.86291,0,0,1-4.89362-3.71961,20.483,20.483,0,0,1-3.51282-11.45331,55.7896,55.7896,0,0,0,4.51758,10.217C26.70919,15.48291,24.52889,7.45,18.26534,4.125a1.00159,1.00159,0,0,0-.91193-.0293,9.86858,9.86858,0,0,0,2.3902,18.73969,12.7042,12.7042,0,0,0,4.80951,4.22467A8.03717,8.03717,0,0,0,21.2123,30.67a6.02058,6.02058,0,0,0-8.73,5.33h-1a4.00289,4.00289,0,0,0-.83,7.91L13.63235,57.3a5.97252,5.97252,0,0,0,5.86,4.7h17.98a5.97254,5.97254,0,0,0,5.86-4.7l2.98-13.39A4.00287,4.00287,0,0,0,45.4822,36h-.99988a6.02061,6.02061,0,0,0-8.73-5.33,8.02341,8.02341,0,0,0-7.2572-4.66906c1.57989-3.39679,3.72455-9.58167,16.21667-13.02729,0,0-8.44079,4.03559-12.67517,9.94855a19.96528,19.96528,0,0,0,15.97791-2.0755,20.09159,20.09159,0,0,0,8.43261-11.585A.99945.99945,0,0,0,55.956,8.11914ZM41.37234,56.87c-.01.04-.02.09-.03.13h-17.86a1,1,0,0,1,0-2h18.31Zm4.11-18.87a2.00014,2.00014,0,0,1-.00006,4H11.48232a2.00014,2.00014,0,0,1,.00006-4Z"></path></svg>