<svg xmlns="http://www.w3.org/2000/svg" viewBox="0 0 64 64" x="0px" y="0px"><path d="M8.01611,13.9775a6.00657,6.00657,0,0,0,6-6c-.28149-7.9411-11.71973-7.93909-12,.00006A6.00655,6.00655,0,0,0,8.01611,13.9775Z"></path><path d="M17.30615,7.70016c.102.03949,2.03949-.52191,2.19141-.55176a1,1,0,0,0-.51764-1.93164l-1.93158.51758A1.00248,1.00248,0,0,0,17.30615,7.70016Z"></path><path d="M23.102,6.14742c.102.03949,2.03949-.52191,2.1914-.55176A1,1,0,0,0,24.77582,3.664l-1.93158.51758A1.00248,1.00248,0,0,0,23.102,6.14742Z"></path><path d="M28.897,4.59371c.102.03949,2.03949-.52191,2.19141-.55176a1,1,0,0,0-.51764-1.93164l-1.93158.51758A1.00248,1.00248,0,0,0,28.897,4.59371Z"></path><path d="M12.688,18.94137l-.51758-1.93164a1,1,0,0,0-1.93164.51758l.51758,1.93164A1,1,0,0,0,12.688,18.94137Z"></path><path d="M13.86279,31.04977a1,1,0,0,0,1.93164-.51764l-.51758-1.93158a.99989.99989,0,1,0-1.93164.51758Z"></path><path d="M12.30908,25.25484a1,1,0,0,0,1.93164-.51763l-.51758-1.93158a.99989.99989,0,1,0-1.93164.51757Z"></path><path d="M2.6665,28.60055l-.51758,1.93164a1,1,0,0,0,1.93164.51752l.51758-1.93158A1,1,0,0,0,2.6665,28.60055Z"></path><path d="M5.63428,25.25484l.51757-1.93164a1,1,0,0,0-1.93164-.51757l-.51758,1.93164A1,1,0,0,0,5.63428,25.25484Z"></path><path d="M7.187,19.459l.51758-1.93164A1,1,0,0,0,5.773,17.00973l-.51758,1.93164A1,1,0,0,0,7.187,19.459Z"></path><path d="M15.78076,17.15621a1.00008,1.00008,0,0,0,1.414-1.41412l-1.414-1.414a.99989.99989,0,0,0-1.41406,1.41406Z"></path><path d="M18.60888,18.57027a.99965.99965,0,0,0,0,1.41407l1.415,1.415A.9999.9999,0,1,0,21.438,19.98531l-1.415-1.415A.99965.99965,0,0,0,18.60888,18.57027Z"></path><path d="M22.84424,13.68453l1.93164.51758a1,1,0,0,0,.51751-1.93164l-1.93158-.51758A1,1,0,0,0,22.84424,13.68453Z"></path><path d="M17.04834,12.1318l1.93164.51758a1,1,0,0,0,.51752-1.93164l-1.93158-.51758A1,1,0,0,0,17.04834,12.1318Z"></path><path d="M28.63916,15.23824l1.93164.51758a1,1,0,0,0,.51752-1.93164l-1.93158-.51758A1,1,0,0,0,28.63916,15.23824Z"></path><path d="M58.51611,54.9775h-.5v-27a1.00225,1.00225,0,0,0-.46094-.84277L32.645,11.19723a1.00488,1.00488,0,1,0-1.06439,1.69336L56.01611,28.52438V54.9775H49.79468a18.57539,18.57539,0,0,0,2.21948-7.91113,2.007,2.007,0,0,0-1.999-2.08887H43.70495c-.16009-.7857-3.89959-9.56561.19648-13.66492a22.66728,22.66728,0,0,0,.38025,11.80365c7.46887-2.39972,7.22735-10.95117,1.97674-17.75689A1.0054,1.0054,0,0,0,45.12353,25.04c-1.3955.51953-6.06738,2.60449-7.5625,7.65332-1.0307,3.28058-.86731,9.60718,3.61182,10.58124a10.44216,10.44216,0,0,0,.39654,1.70294H36.063a2.00691,2.00691,0,0,0-1.999,2.08984,18.56633,18.56633,0,0,0,2.21875,7.91016H27.772a18.55769,18.55769,0,0,0,2.21875-7.91113,2.007,2.007,0,0,0-1.999-2.08887H21.68249c-.71246-2.38531-3.55548-9.87256.21894-13.66492a22.66685,22.66685,0,0,0,.37848,11.79755c7.44976-2.41376,7.19995-10.94989,1.956-17.75079A1.00031,1.00031,0,0,0,23.102,25.04c-1.39649.51856-6.06641,2.60156-7.56445,7.65332-1.03089,3.28058-.86707,9.60773,3.61285,10.58154a10.45346,10.45346,0,0,0,.39648,1.70264h-5.5064a2.00692,2.00692,0,0,0-1.999,2.08887,18.55793,18.55793,0,0,0,2.21875,7.91113H8.01611V28.52438l2.91016-1.86524a1.00013,1.00013,0,1,0-1.08008-1.68359L6.47607,27.1357a1.00073,1.00073,0,0,0-.46.8418v27a3.5151,3.5151,0,1,0-.49994,7.00006l52.99994-.00006A3.50015,3.50015,0,0,0,58.51611,54.9775Zm-41.956,0a16.74842,16.74842,0,0,1-2.51953-8c3.48345-.00372,10.485-.00818,13.95214-.01465a16.74671,16.74671,0,0,1-2.5205,8.01465Zm22.02246,0a16.7472,16.7472,0,0,1-2.51953-8c3.48407-.004,10.48639-.00867,13.95312-.01562a16.74264,16.74264,0,0,1-2.52148,8.01562Z"></path></svg>